<svg width="512" height="512" viewBox="0 0 512 512" fill="none" xmlns="http://www.w3.org/2000/svg">
<rect width="512" height="512" fill="#EEFEFF"/>
<path d="M310.879 398.992C311.114 392.915 311.653 386.961 310.388 381.414C308.805 374.475 310.003 367.261 307.378 360.445C305.422 337.908 304.336 338.536 304.922 337.027C303.44 323.475 302.934 320.128 302.106 316.957C301.132 313.228 300.16 309.5 299.876 305.633C299.799 304.59 300.041 303.268 298.813 302.761C297.46 302.201 296.556 303.209 295.711 304.096C289.616 310.498 283.134 316.507 277.565 323.442C262.894 345.046 259.985 354.45 256.989 363.184C251.988 379.767 253.136 372.026 252.078 376.544C251.055 380.91 248.744 384.674 247.809 389.029C246.769 393.872 245.879 398.678 245.535 403.617C245.261 407.546 242.288 410.004 239.557 412.147C237.356 413.873 234.081 411.778 233.284 408.674C232.52 405.694 233.425 402.804 234.499 400.212C234.539 391.341 235.266 384.831 236.166 368.67C233.812 351.556 235.123 337.458 235.492 321.862C235.597 317.388 236.535 313.075 236.9 308.668C243.035 271.709 244.94 265.91 247.814 260.486C249.006 258.236 251.288 257.323 253.724 258.556C256.268 259.844 257.876 262.382 256.335 264.847C249.665 290.373 248.112 297.681 246.531 304.946C244.85 312.675 243.847 320.564 242.824 328.418C241.827 336.072 242.021 343.798 241.912 351.505C241.856 355.501 242.374 359.427 242.619 363.384C242.681 364.378 242.879 365.38 244.06 365.616C245.25 365.853 245.807 364.968 246.248 364.093C247.748 361.123 250.106 358.533 249.96 354.85C257.157 337.844 258.547 335.163 260.93 332.64C265.645 327.648 268.512 321.185 273.515 316.385C279.962 310.2 284.87 302.706 290.916 296.21C294.33 292.541 297.853 287.997 302.13 286.249C307.72 283.964 310.646 278.057 316.783 277.102C317.519 276.988 318.19 276.206 318.808 275.643C321.942 272.791 325.066 270.021 329.622 269.586C330.871 269.467 332.59 268.915 333.164 267.991C336.365 262.833 341.822 262.636 346.788 261.9C351.618 261.185 356.174 259.795 360.793 258.393C366.847 256.555 373.212 255.881 379.438 255.808C390.935 255.671 402.381 254.167 413.871 254.633C418.554 254.824 423.246 255.612 427.675 257.355C429.717 258.159 431.764 258.707 433.998 258.78C440.943 259.004 447.483 261.016 454.039 263.17C457.796 264.404 461.765 265.011 465.451 266.572C466.222 266.898 467.153 266.83 467.823 266.134C468.72 265.202 468.022 264.408 467.614 263.53C465.76 259.542 463.248 255.992 459.942 253.127C454.729 248.61 451.469 242.493 446.572 237.662C440.756 231.925 434.994 226.216 428.236 221.583C427.545 221.109 426.769 220.372 426.051 220.393C423.275 220.475 422.093 218.639 420.726 216.719C416.037 210.131 417.666 204.276 425.176 201.023C430.328 198.79 435.527 196.722 440.271 193.574C445.66 189.999 452.139 188.383 458.225 187.102C463.488 185.994 469.473 187.48 474.953 189.174C477.142 189.851 479.389 190.364 481.635 190.827C482.599 191.025 483.654 190.814 484.168 189.827C484.722 188.762 483.957 187.978 483.283 187.299C475.341 179.304 466.168 173.786 454.899 171.289C445.93 169.303 436.796 168.297 427.889 166.079C425.299 165.435 423.554 163.48 421.554 162.027C420.118 160.983 421.143 159.211 422.111 157.854C427.813 149.855 434.808 143.169 442.588 137.177C446.777 133.951 450.338 129.929 455.093 127.399C455.718 127.066 456.305 126.563 456.228 125.597C455.615 124.203 454.246 124.519 453.128 124.571C449.392 124.747 445.702 125.033 442.012 125.975C437.917 127.02 433.566 126.473 429.375 126.848C422.709 127.443 416.113 128.871 411.137 133.976C408.415 136.769 406.971 136.85 403.767 134.131C401.27 132.013 400.675 128.491 402.553 126.165C403.693 124.751 405.075 123.318 406.874 122.987C416.979 121.123 426.723 116.461 437.408 118.93C438.395 119.158 439.407 119.089 440.242 118.604C444.468 116.15 448.911 116.298 453.598 116.884C459.975 117.681 466.316 115.26 472.751 116.236C480.541 117.417 488.435 115.378 496.232 117.015C497.806 117.345 499.276 117.621 500.574 118.59C502.441 119.983 504.445 121.379 503.875 124.09C503.469 126.017 499.013 128.443 496.699 127.843C492.674 126.798 488.56 126.753 484.487 126.244C479.847 125.665 475.236 126.175 470.752 126.961C467.379 127.551 465.381 131.199 462.005 132.319C457.654 133.764 455.135 137.808 451.292 139.938C448.805 141.316 448.621 144.23 446.898 145.831C443.637 148.861 440.399 151.916 437.163 154.974C436.085 155.993 434.718 156.824 435.099 158.472C435.492 160.173 437.162 159.846 438.426 159.999C441.428 160.361 444.454 161.044 447.439 160.907C453.078 160.648 457.519 163.984 462.598 165.287C478.551 169.381 489.242 181.109 501.063 191.189C503.7 193.438 507.444 194.232 509.254 197.527C509.714 198.362 510.406 199.068 510.901 199.887C512.274 202.16 512.602 204.386 510.468 206.452C508.36 208.494 506.175 207.65 504.139 206.472C501.117 204.724 498.526 202.308 495.55 200.374C488.386 196.424 487.553 197.48 486.383 196.954C483.653 197.831 480.896 197.635 478.115 197.175C458.492 194.448 452.542 196.852 447.018 201.074C445.262 202.417 443.379 203.22 441.174 203.727C436.935 204.7 433.571 207.327 430.559 210.386C428.726 212.248 430.34 213.174 431.642 214.018C439.104 218.858 445.668 224.724 451.17 231.652C456.891 238.855 463.731 245.064 469.492 252.147C473.442 257.003 477.809 261.515 481.572 266.535C483.679 269.347 483.053 273.369 486.195 275.666C487.728 276.788 489.155 278.233 490.183 279.819C491.642 282.069 493.683 284.547 491.465 287.347C489.864 289.369 484.964 289.21 482.291 287.43C479.38 285.491 477.884 282.346 475.625 279.853C474.818 278.963 474.207 277.567 472.997 277.468C467.314 277.002 462.658 273.782 457.526 271.886C449.969 269.093 441.985 268.146 434.241 266.247C429.152 264.998 423.581 264.953 418.183 264.651C410.635 264.229 403.043 264.03 395.5 263.523C355.229 264.753 350.454 270.654 344.21 271.496C342.023 271.791 340.868 273.69 338.988 274.572C332.798 277.476 326.432 280.298 320.932 284.251C317.939 286.401 314.456 287.415 311.639 289.718C307.421 293.165 306.487 295.703 307.826 300.971C309.461 307.407 310.779 313.856 312.333 322.622C316.695 353.726 319.361 365.801 319.47 379.062C319.492 381.799 319.505 385.183 320.646 387.471C322.973 392.14 323.214 398.788 330.28 399.979C331.75 400.227 332.83 401.302 333.967 402.212C336.737 404.43 339.691 406.293 343.366 406.57C348.07 406.924 350.584 411.165 354.576 412.796C355.557 413.197 356.356 414.016 357.3 414.532C358.939 415.426 360.148 416.487 359.221 418.543C358.388 420.392 356.964 421.671 354.919 420.832C351.055 419.246 347.247 417.491 343.548 415.556C338.773 413.058 334.468 409.673 328.604 409.692C324.59 409.705 323.337 410.663 324.272 414.504C326.235 422.563 328.916 430.458 329.262 438.865C329.348 440.956 330.899 442.818 330.763 445.112C330.553 448.651 328.719 449.859 325.526 448.404C322.16 446.871 320.62 444.441 320.008 440.649C318.928 433.95 318.745 427.073 316.481 420.576C316.122 419.546 315.882 418.352 314.701 418.027C313.393 417.668 312.817 418.895 312.107 419.652C307.87 424.166 305.799 430.041 302.389 435.049C299.531 439.246 297.779 443.998 294.88 448.169C293.298 450.445 291.669 452.824 289.041 451.722C286.568 450.686 285.796 447.645 286.083 444.853C286.374 442.024 287.817 439.547 289.498 437.385C292.52 433.499 295.068 429.556 297.138 424.949C299.087 420.612 300.918 415.628 304.844 412.294C308.902 408.848 310.196 404.136 311.35 398.992H310.879Z" fill="#333333"/>
<path d="M169.925 151.005C168.063 152.87 166.768 154.916 164.411 155.923C162.903 156.568 161.437 157.505 160.2 155.885C158.929 154.22 158.661 152.094 160.332 150.639C164.279 147.204 167.486 143.328 169.56 138.499C169.989 137.499 171.237 136.82 172.163 136.059C175.256 133.521 178.269 130.969 179.128 126.749C179.304 125.884 179.949 124.877 180.684 124.397C186.583 120.54 190.436 114.243 196.471 110.761C203.778 106.545 210.957 101.778 219.66 100.496C222.596 100.064 223.561 97.8182 224.243 95.2007C226.864 85.1512 228.782 74.8574 234.059 65.6782C235.073 63.9144 236.164 62.1749 237.403 60.5631C238.415 59.2465 239.892 58.6347 241.591 59.2259C243.261 59.8072 243.371 61.2527 243.516 62.7435C243.978 67.4911 241.507 71.3259 239.393 75.1631C237.8 78.0572 236.739 81.0176 236.031 84.1922C235.385 87.0836 235.086 90.0354 233.31 92.6677C231.823 94.8702 233.093 97.1457 235.875 97.6929C237.999 98.1106 240.184 98.3188 242.351 98.4081C249.834 98.7166 257.512 99.0603 264.389 101.692C268.619 103.311 274.079 103.989 276.777 108.767C277.164 109.452 277.95 109.975 278.651 110.419C285.498 114.76 291.033 120.574 297.051 125.874C300.979 129.334 305.153 132.89 309.764 135.655C311.786 136.868 313.378 138.37 314.635 140.347C317.77 145.278 320.518 150.559 324.313 154.941C328.302 159.546 332.288 164.164 336.285 168.769C337.965 170.704 339.587 172.536 340.178 175.102C340.646 177.133 341.953 178.754 343.168 180.396C343.597 180.974 344.204 181.447 344.528 182.071C345.572 184.086 346.704 186.153 345.443 188.47C344.742 189.759 343.561 190.151 342.068 190.025C339.215 189.785 335.946 188.668 335.813 186.082C335.478 179.604 329.92 177.103 326.926 172.698C323.032 166.966 318.273 161.799 315.32 155.449C314.07 152.762 311.586 151.085 309.825 148.813C305.85 143.686 301.773 138.661 296.118 135.166C293.939 133.82 292.622 131.568 290.888 129.752C285.093 123.686 278.802 118.276 270.572 115.643C268.253 114.901 267.45 112.428 265.308 111.373C259.949 108.734 254.436 106.825 248.408 106.49C245.395 106.323 242.376 106.073 239.389 105.654C230.967 104.472 227.894 106.628 227.18 115.045C226.478 123.322 223.914 131.298 221.698 139.077C219.275 147.583 217.683 156.251 215.703 164.795C214.12 171.625 212.15 178.372 210.731 185.241C210.562 186.061 210.133 186.878 210.168 187.681C210.546 196.369 206.436 204.314 206.013 212.911C205.803 217.158 202.666 220.76 201.995 225.112C201.067 231.128 199.439 237.008 197.46 242.785C196.985 244.172 197.132 245.602 198.206 246.843C202.447 246.225 203.091 241.842 205.905 239.717C211.744 235.309 217.507 230.826 224.448 228.208C226.599 227.396 228.788 227.756 230.681 229.04C234.264 231.471 238.135 233.64 241.072 236.613C243.974 240.927 243.561 243.504 243.968 247.061C244.558 252.209 242.691 256.891 240.829 261.84C236.821 272.492 230.245 281.275 222.455 289.009C216.481 294.94 211.764 302.353 203.931 306.355C199.367 308.686 194.624 308.253 189.954 306.805C188.615 306.39 187.319 305.173 187.046 303.756C186.15 299.112 182.638 295.89 180.847 291.596C178.946 292.049 178.003 293.437 177.702 294.859C176.661 299.774 174.001 304.22 171.44 309.225C161.762 337.022 160.684 341.144 159.937 345.423C159.446 348.234 158.766 351.036 157.659 360.987C153.566 391.056 153.723 392.54 153.085 393.881C151.705 396.78 151.733 399.396 154.242 401.736C154.63 402.098 154.87 402.8 154.879 403.35C155.075 415.011 154.586 426.608 151.631 437.987C151.309 439.228 151.149 440.689 151.494 441.884C152.243 444.477 151.554 446.156 148.946 446.826C146.237 447.522 144.19 446.056 143.543 443.768C142.775 441.05 141.445 438.056 143.854 435.263C144.423 434.604 144.747 433.439 144.651 432.565C144.031 426.915 145.764 421.37 145.307 415.741C145.191 414.321 145.356 412.592 143.759 411.988C142.036 411.335 141.199 413.033 140.316 414.04C132.799 422.613 125.318 431.218 118.391 440.277C117.809 441.037 117.151 441.753 116.455 442.414C114.943 443.847 112.97 444.793 111.321 443.275C109.457 441.56 107.895 439.07 110.027 436.6C114.89 430.97 118.809 424.614 124.213 419.372C127.537 416.147 129.809 411.893 133.489 408.894C133.838 408.61 134.199 408.093 134.204 407.68C134.256 403.136 137.151 400.43 140.209 397.53C144.044 393.892 144.869 388.687 145.761 383.769C147.425 374.592 148.255 365.304 149.265 356.038C150.193 347.517 151.131 340.139 155.23 330.574C161.285 310.663 164.949 304.916 167.572 299.498C170.166 294.14 170.31 288.204 172.907 282.99C173.754 281.289 175.071 279.809 175.849 278.085C179.572 269.834 183.624 261.746 186.802 253.226C188.287 249.246 188.523 245.152 189.745 241.448C191.119 237.285 191.543 232.851 193.471 228.729C195.545 224.293 196.249 219.118 197.19 214.24C198.726 206.27 200.869 198.404 201.612 190.271C202.343 182.275 204.448 174.518 206.56 166.79C208.727 158.861 210.587 150.84 212.831 142.954C215.594 133.246 216.13 123.145 219.018 113.505C219.399 112.233 219.45 110.834 218.15 109.909C217.153 109.201 215.905 109.226 215.093 109.959C211.123 113.542 205.505 114.522 201.728 118.37C197.365 122.814 191.716 126.102 187.841 130.692C183.781 135.5 179.064 139.856 175.614 145.179C174.145 147.447 172.069 149.061 169.925 151.005ZM233.819 256.024C237.659 248.725 235.995 245.959 233.094 240.927C230.918 239.489 228.73 236.514 225.273 237.711C220.802 239.259 216.285 240.866 212.807 244.499C199.728 256.743 199.728 258.9 196.431 262.231C187.785 270.493 185.924 280.324 188.394 291.174C190.433 300.131 196.417 304.238 204.769 297.098C208.547 293.868 211.545 289.857 215.963 287.21C218.55 285.66 220.362 282.885 221.685 279.951C222.999 277.038 224.536 274.289 226.685 271.748C229.831 268.031 230.192 264.651 232.368 259.619L233.819 256.024Z" fill="#333333"/>
<path d="M105.381 302.687C117.186 306.079 130.383 302.617 135.578 300.129C137.293 299.991 139.181 298.463 141.38 298.463C142.107 298.554 143.313 298.367 144.164 300.092C144.971 301.727 145.762 303.424 143.621 304.649C144.313 304.694 138.447 308.156 131.849 310.233C120.851 312.31 116.89 312.168 113.613 311.735C107.33 310.906 101.467 308.484 95.4043 306.805C89.1123 305.063 84.3899 301.526 81.4097 295.993C78.6935 290.951 79.4301 285.467 79.4044 280.133C79.3756 274.156 80.7694 268.255 81.116 262.307C81.4067 257.318 79.5944 256.264 74.6422 257.756C71.905 258.581 69.0786 258.549 66.3029 258.691C57.0664 261.078 65.8644 259.001 54.1338 261.77C44.6027 261.77 36.9846 265.013 29.3706 266.958C23.9012 268.356 18.572 270.823 13.5678 273.655C10.2333 275.541 6.78844 277.315 2.61836 277.074C0.305314 276.94 -0.182532 276.027 0.0537659 273.952C0.547843 269.613 3.55835 267.019 7.19293 265.418C14.4186 262.236 20.4141 257.466 26.8005 253.156C31.4306 250.031 36.0175 246.817 41.1282 244.316C45.5066 242.174 48.2475 238.077 52.0931 235.231C58.6038 230.412 65.2669 225.782 71.2664 220.347C75.529 216.485 76.8898 210.963 80.6752 206.859C81.8563 205.578 82.345 203.52 84.6907 204.101C87.2291 204.729 88.4768 206.695 88.6241 208.995C88.7635 211.173 88.1882 213.326 86.9608 215.28C80.1373 226.146 69.7638 233.625 59.3631 241.065C57.0435 242.725 54.5634 244.103 52.7051 246.359C50.6577 248.845 47.4494 250.005 44.6427 251.593C44.0266 251.942 43.2429 252.05 43.0875 252.92C43.2421 254.015 44.1867 254.033 45.0147 253.971C46.8309 253.835 48.6723 253.728 50.4414 253.349C56.2993 252.098 61.8835 249.744 71.7297 248.616C78.9843 247.165 82.3873 246.913 85.8388 247.042C89.4885 247.179 93.2744 251.401 92.8134 254.833C91.9577 261.201 90.6127 267.468 89.2264 273.756C87.4651 281.747 86.4059 290.589 93.8892 297.424C98.1235 299.848 96.6571 298.463 100.323 300.54C103.256 301.925 103.652 301.806 105.381 302.687Z" fill="#333333"/>
<path d="M114 216.896C114.861 213.724 116.49 210.033 123.739 209.047C126.503 208.672 130.353 210.552 132.813 213.878C134.125 220.236 135.262 226.596 130.956 232.639C129.224 235.069 126.844 234.76 124.573 235C120.886 232.756 120.025 235.134 114.861 224.033L114 216.896Z" fill="#333333"/>
<path d="M167.852 402.23C173.139 406.327 174.892 412.616 178.331 417.703C180.078 420.287 181.892 422.774 183.956 425.091C185.148 426.429 186.659 428.026 185.692 429.816C184.616 431.808 182.418 430.78 180.843 430.348C176.355 429.117 172.975 426.695 171.009 421.935C168.838 416.678 166.181 411.546 161.491 407.916C159.423 406.316 159.572 403.185 161.533 401.382C163.764 399.33 165.675 399.523 167.852 402.23Z" fill="#333333"/>
</svg>
