<svg width="504" height="76" viewBox="0 0 504 76" fill="none" xmlns="http://www.w3.org/2000/svg">
<g clip-path="url(#clip0_1_2)">
<path d="M483.355 13H488.092V65.8773H483.355V13Z" fill="black"/>
<path d="M412.96 13H433.787V16.9577H437.745V20.9803H441.767V33.6968H437.745V37.7193H433.787V41.0282H437.745V53.0959H441.767V65.8773H437.096V53.7447H433.073V41.7419H417.762V65.8773H412.96V13ZM433.073 37.0056V33.048H437.096V21.6939H433.073V17.6714H417.762V37.0056H433.073Z" fill="black"/>
<path d="M358.656 57.7673H354.568V20.9803H358.656V16.9577H362.678V13H375.395V16.9577H379.353V20.9803H383.375V57.7673H379.353V61.7898H375.395V65.8773H362.678V61.7898H358.656V57.7673ZM363.327 57.1185V61.0762H374.681V57.1185H378.704V21.6939H374.681V17.6714H363.327V21.6939H359.369V57.1185H363.327Z" fill="black"/>
<path d="M296.176 13H324.983V17.6714H300.977V37.0056H320.96V41.7419H300.977V61.0762H324.983V65.8773H296.176V13Z" fill="black"/>
<path d="M237.784 13H242.585V20.9803H246.543V29.0254H250.566V37.0056H254.588V45.0508H258.611V53.0959H261.92V13H266.591V65.8773H261.92V61.7898H257.897V53.7447H253.874V45.7645H249.852V37.7193H245.894V29.7391H242.585V65.8773H237.784V13Z" fill="black"/>
<path d="M179.392 53.0959H183.48V37.0056H187.502V25.0028H191.46V13H196.196V25.0028H200.219V37.0056H204.176V53.0959H208.199V65.8773H203.527V53.7447H184.193V65.8773H179.392V53.0959ZM199.505 49.0733V37.7193H195.482V25.7165H192.173V37.7193H188.151V49.0733H199.505Z" fill="black"/>
<path d="M133.068 41.7419H129.11V33.6968H125.087V25.7165H121V13H125.801V25.0028H129.759V33.048H133.781V41.0282H137.09V33.048H141.113V25.0028H145.135V13H149.807V25.7165H145.784V33.6968H141.827V41.7419H137.804V65.8773H133.068V41.7419Z" fill="black"/>
<path d="M60.0734 65.7454C60.1188 64.5698 60.2232 63.418 59.9783 62.345C59.6719 61.0027 59.9039 59.6071 59.3958 58.2885C59.0171 53.9287 58.8069 54.0501 58.9205 53.7581C58.6335 51.1365 58.5357 50.489 58.3754 49.8756C58.1868 49.1541 57.9987 48.433 57.9437 47.6849C57.9288 47.4833 57.9757 47.2274 57.7381 47.1293C57.4761 47.0211 57.3012 47.216 57.1376 47.3877C55.9579 48.6261 54.7033 49.7885 53.6255 51.1302C50.7859 55.3095 50.223 57.1287 49.6431 58.8182C48.6751 62.0264 48.8973 60.5288 48.6924 61.4029C48.4945 62.2475 48.0473 62.9757 47.8662 63.8181C47.6649 64.755 47.4927 65.6847 47.4261 66.6402C47.3732 67.4004 46.7977 67.8758 46.269 68.2903C45.8431 68.6243 45.2091 68.219 45.055 67.6185C44.907 67.042 45.0822 66.4829 45.2901 65.9814C45.2978 64.2654 45.4385 63.006 45.6128 59.8796C45.1571 56.5689 45.4109 53.8417 45.4823 50.8245C45.5027 49.959 45.6842 49.1247 45.7548 48.2722C46.9422 41.1223 47.3109 40.0005 47.8673 38.9511C48.098 38.5159 48.5396 38.3393 49.011 38.5778C49.5035 38.8269 49.8147 39.3179 49.5164 39.7949C48.2254 44.7328 47.925 46.1466 47.619 47.5521C47.2935 49.0473 47.0995 50.5733 46.9015 52.0928C46.7085 53.5735 46.746 55.068 46.7249 56.559C46.714 57.332 46.8142 58.0914 46.8618 58.8571C46.8737 59.0494 46.912 59.2432 47.1406 59.2888C47.371 59.3347 47.4787 59.1634 47.5641 58.9942C47.8544 58.4196 48.3109 57.9185 48.2826 57.2061C49.6755 53.9163 49.9447 53.3975 50.4057 52.9096C51.3184 51.9438 51.8732 50.6934 52.8417 49.7649C54.0894 48.5685 55.0395 47.1187 56.2095 45.8621C56.8703 45.1524 57.5522 44.2732 58.3799 43.935C59.4619 43.493 60.0282 42.3503 61.2161 42.1656C61.3585 42.1434 61.4884 41.9922 61.608 41.8834C62.2145 41.3316 62.8192 40.7957 63.7011 40.7115C63.9428 40.6885 64.2755 40.5818 64.3865 40.403C65.0062 39.4052 66.0623 39.3671 67.0235 39.2248C67.9584 39.0864 68.8402 38.8175 69.7342 38.5463C70.9058 38.1908 72.1379 38.0604 73.3428 38.0461C75.5681 38.0198 77.7833 37.7287 80.0073 37.819C80.9137 37.8557 81.8218 38.0083 82.679 38.3454C83.0743 38.501 83.4705 38.6071 83.9028 38.6211C85.247 38.6645 86.5129 39.0538 87.7818 39.4704C88.5088 39.709 89.2772 39.8265 89.9906 40.1285C90.1398 40.1917 90.3199 40.1784 90.4496 40.0438C90.6233 39.8636 90.4881 39.7098 90.4091 39.5401C90.0503 38.7686 89.5641 38.0818 88.9243 37.5276C87.9153 36.6537 87.2844 35.4703 86.3365 34.5357C85.2109 33.426 84.0956 32.3216 82.7875 31.4253C82.6538 31.3337 82.5036 31.191 82.3648 31.1951C81.8275 31.2109 81.5986 30.8558 81.334 30.4843C80.4265 29.2099 80.7419 28.0773 82.1954 27.4478C83.1926 27.0159 84.1988 26.6159 85.117 26.0069C86.1599 25.3153 87.414 25.0026 88.5919 24.7548C89.6105 24.5405 90.769 24.8279 91.8297 25.1557C92.2534 25.2867 92.6882 25.386 93.123 25.4755C93.3094 25.5139 93.5137 25.4729 93.6131 25.282C93.7204 25.076 93.5723 24.9243 93.4418 24.793C91.9047 23.2462 90.1293 22.1787 87.9483 21.6959C86.2123 21.3115 84.4444 21.117 82.7205 20.688C82.2192 20.5633 81.8814 20.1852 81.4944 19.9041C81.2164 19.7021 81.4148 19.3593 81.6021 19.0967C82.7058 17.5494 84.0595 16.2558 85.5655 15.0967C86.3762 14.4727 87.0655 13.6946 87.9857 13.2051C88.1066 13.1408 88.2203 13.0434 88.2055 12.8565C88.0868 12.587 87.8218 12.6479 87.6054 12.6581C86.8823 12.6921 86.1682 12.7475 85.4539 12.9297C84.6614 13.1318 83.8192 13.0261 83.0081 13.0985C81.718 13.2137 80.4413 13.4899 79.4782 14.4776C78.9513 15.0178 78.6719 15.0336 78.0516 14.5075C77.5684 14.0977 77.4532 13.4165 77.8166 12.9664C78.0374 12.6929 78.3048 12.4158 78.653 12.3516C80.6089 11.9911 82.4947 11.0892 84.5627 11.5668C84.7539 11.6109 84.9498 11.5976 85.1113 11.5038C85.9294 11.0289 86.7893 11.0576 87.6963 11.171C88.9306 11.3252 90.1579 10.8568 91.4035 11.0456C92.9111 11.2741 94.4389 10.8798 95.9482 11.1963C96.2527 11.2602 96.5372 11.3136 96.7885 11.501C97.1499 11.7706 97.5377 12.0406 97.4273 12.5651C97.3489 12.9379 96.4864 13.4072 96.0386 13.291C95.2595 13.0889 94.4632 13.0801 93.6749 12.9818C92.7768 12.8697 91.8843 12.9684 91.0165 13.1203C90.3637 13.2346 89.9769 13.9402 89.3236 14.157C88.4813 14.4365 87.9938 15.2188 87.25 15.6309C86.7687 15.8975 86.7332 16.4612 86.3996 16.771C85.7684 17.357 85.1418 17.9481 84.5154 18.5396C84.3067 18.7366 84.0423 18.8976 84.1159 19.2163C84.192 19.5454 84.5153 19.4822 84.7599 19.5117C85.3408 19.5818 85.9266 19.7139 86.5043 19.6874C87.5958 19.6373 88.4553 20.2826 89.4383 20.5347C92.526 21.3267 94.5952 23.5955 96.8831 25.5455C97.3936 25.9806 98.1181 26.1341 98.4686 26.7715C98.5575 26.9331 98.6915 27.0697 98.7873 27.2282C99.053 27.6678 99.1166 28.0985 98.7035 28.4982C98.2954 28.8932 97.8726 28.73 97.4785 28.502C96.8936 28.1638 96.3922 27.6965 95.8162 27.3223C94.4295 26.5582 94.2682 26.7625 94.0418 26.6608C93.5135 26.8303 92.9799 26.7925 92.4415 26.7036C88.6437 26.176 87.492 26.641 86.4228 27.4578C86.0829 27.7175 85.7185 27.8729 85.2917 27.9709C84.4713 28.1592 83.8202 28.6674 83.2373 29.2592C82.8825 29.6194 83.1948 29.7985 83.4468 29.9619C84.8911 30.8982 86.1615 32.0328 87.2264 33.3732C88.3337 34.7666 89.6575 35.9677 90.7727 37.3379C91.5372 38.2773 92.3824 39.1502 93.1106 40.1214C93.5184 40.6653 93.3973 41.4434 94.0054 41.8879C94.3023 42.1049 94.5784 42.3844 94.7774 42.6911C95.0597 43.1265 95.4548 43.6058 95.0256 44.1475C94.7156 44.5387 93.7672 44.5079 93.2498 44.1635C92.6864 43.7885 92.3968 43.18 91.9597 42.6978C91.8035 42.5255 91.6852 42.2556 91.451 42.2364C90.3512 42.1463 89.45 41.5232 88.4567 41.1564C86.994 40.6163 85.4486 40.4329 83.9498 40.0655C82.9648 39.8241 81.8866 39.8153 80.842 39.7569C79.3809 39.6753 77.9116 39.6367 76.4515 39.5387C68.6573 39.7766 67.7331 40.9182 66.5246 41.0811C66.1013 41.1381 65.8777 41.5055 65.5138 41.6762C64.3158 42.2379 63.0837 42.7838 62.0191 43.5485C61.4399 43.9645 60.7657 44.1606 60.2204 44.6061C59.4041 45.2729 59.2232 45.7639 59.4824 46.7831C59.7989 48.0281 60.054 49.2757 60.3548 50.9715C61.1991 56.9887 61.7151 59.3246 61.7361 61.8899C61.7404 62.4194 61.743 63.0741 61.9637 63.5167C62.4141 64.4199 62.4608 65.706 63.8283 65.9365C64.1128 65.9844 64.322 66.1924 64.542 66.3685C65.0781 66.7975 65.6499 67.1579 66.3612 67.2114C67.2716 67.28 67.7582 68.1003 68.5309 68.4159C68.7207 68.4934 68.8753 68.6519 69.058 68.7516C69.3753 68.9247 69.6092 69.1299 69.4299 69.5276C69.2686 69.8853 68.993 70.1328 68.5972 69.9704C67.8494 69.6637 67.1123 69.3242 66.3964 68.9498C65.4723 68.4667 64.6389 67.8118 63.5041 67.8154C62.727 67.8179 62.4845 68.0032 62.6656 68.7463C63.0454 70.3054 63.5644 71.8326 63.6314 73.4591C63.6481 73.8635 63.9482 74.2238 63.9219 74.6675C63.8812 75.3521 63.5263 75.5857 62.9083 75.3044C62.2569 75.0077 61.9587 74.5377 61.8403 73.8041C61.6312 72.5082 61.5959 71.1777 61.1576 69.921C61.088 69.7217 61.0417 69.4906 60.8131 69.4279C60.5598 69.3584 60.4484 69.5958 60.311 69.7422C59.4909 70.6155 59.0902 71.7521 58.4301 72.7208C57.8769 73.5327 57.5378 74.452 56.9767 75.2589C56.6706 75.6991 56.3553 76.1593 55.8467 75.9463C55.368 75.7458 55.2185 75.1576 55.2741 74.6174C55.3304 74.0702 55.6098 73.591 55.9351 73.1728C56.52 72.4209 57.0131 71.6582 57.4139 70.7668C57.791 69.928 58.1454 68.9637 58.9054 68.3187C59.6908 67.6521 59.9412 66.7405 60.1646 65.7454H60.0734Z" fill="black"/>
<path d="M32.8251 17.7844C32.4638 18.1449 32.2123 18.5404 31.7548 18.7352C31.4621 18.8598 31.1777 19.041 30.9376 18.7278C30.6909 18.406 30.6387 17.995 30.9633 17.7137C31.7292 17.0497 32.3517 16.3006 32.7543 15.3671C32.8376 15.1739 33.0797 15.0425 33.2595 14.8955C33.8598 14.4049 34.4446 13.9116 34.6114 13.0958C34.6456 12.9286 34.7706 12.734 34.9133 12.6411C36.0583 11.8957 36.8062 10.6785 37.9775 10.0054C39.3956 9.19039 40.7891 8.26895 42.4782 8.02117C43.0481 7.93757 43.2354 7.50352 43.3679 6.99756C43.8765 5.05499 44.2489 3.06523 45.2731 1.29089C45.47 0.949946 45.6816 0.613701 45.9221 0.302149C46.1186 0.0476443 46.4052 -0.0706032 46.7349 0.0436698C47.0591 0.156025 47.0805 0.435447 47.1087 0.72361C47.1983 1.64132 46.7186 2.38259 46.3084 3.12432C45.9991 3.68374 45.7933 4.25598 45.6557 4.86962C45.5304 5.42852 45.4724 5.99911 45.1276 6.50793C44.8392 6.93367 45.0855 7.37353 45.6256 7.47929C46.0378 7.56003 46.4619 7.60028 46.8824 7.61755C48.3349 7.67718 49.8251 7.74361 51.1599 8.25236C51.981 8.56527 53.0407 8.69629 53.5644 9.61985C53.6395 9.75234 53.792 9.85336 53.928 9.9392C55.2569 10.7783 56.3313 11.9021 57.4994 12.9268C58.2617 13.5955 59.0719 14.2829 59.9669 14.8174C60.3594 15.0518 60.6684 15.3422 60.9122 15.7242C61.5207 16.6775 62.0541 17.6983 62.7908 18.5453C63.565 19.4355 64.3386 20.3281 65.1144 21.2182C65.4405 21.5923 65.7553 21.9463 65.8701 22.4424C65.9609 22.835 66.2144 23.1483 66.4504 23.4657C66.5335 23.5775 66.6514 23.6689 66.7142 23.7896C66.9169 24.1791 67.1367 24.5786 66.892 25.0265C66.7559 25.2755 66.5266 25.3513 66.2369 25.327C65.6832 25.2805 65.0486 25.0647 65.0227 24.5649C64.9577 23.3126 63.879 22.8292 63.2979 21.9776C62.542 20.8698 61.6185 19.871 61.0452 18.6434C60.8027 18.1242 60.3205 17.8 59.9787 17.3608C59.2073 16.3696 58.4158 15.3985 57.3182 14.7229C56.8953 14.4626 56.6397 14.0273 56.3031 13.6763C55.1784 12.5038 53.9574 11.4579 52.3599 10.949C51.9099 10.8056 51.754 10.3275 51.3383 10.1237C50.2981 9.61352 49.228 9.24453 48.0582 9.17983C47.4733 9.14748 46.8874 9.09921 46.3076 9.01819C44.673 8.78979 44.0766 9.20637 43.938 10.8335C43.8017 12.4333 43.304 13.9751 42.8739 15.4788C42.4036 17.1229 42.0946 18.7985 41.7102 20.4501C41.403 21.7703 41.0207 23.0745 40.7452 24.4023C40.7124 24.5607 40.6292 24.7186 40.6359 24.8739C40.7093 26.5533 39.9116 28.089 39.8294 29.7509C39.7889 30.5718 39.1798 31.268 39.0496 32.1093C38.8696 33.2722 38.5535 34.4088 38.1694 35.5255C38.0772 35.7935 38.1059 36.07 38.3143 36.3099C39.1374 36.1904 39.2623 35.3432 39.8086 34.9324C40.9419 34.0803 42.0605 33.2139 43.4076 32.7077C43.8252 32.5508 44.2499 32.6203 44.6174 32.8686C45.3129 33.3385 46.0641 33.7578 46.6343 34.3325C47.1974 35.1663 47.1173 35.6644 47.1964 36.3521C47.3108 37.3472 46.9485 38.2521 46.5871 39.2088C45.8092 41.2679 44.5329 42.9655 43.0209 44.4605C41.8612 45.6071 40.9457 47.04 39.4254 47.8134C38.5397 48.264 37.6191 48.1803 36.7127 47.9005C36.4527 47.8202 36.2013 47.585 36.1482 47.3111C35.9743 46.4134 35.2926 45.7905 34.9449 44.9607C34.5761 45.0482 34.393 45.3165 34.3346 45.5912C34.1325 46.5415 33.6162 47.4008 33.1192 48.3682C31.2407 53.7414 31.0314 54.5381 30.8864 55.3654C30.7913 55.9086 30.6592 56.4502 30.4443 58.3739C29.6499 64.1861 29.6805 64.4729 29.5565 64.7322C29.2887 65.2926 29.2942 65.7982 29.7812 66.2505C29.8565 66.3204 29.9031 66.4562 29.9049 66.5625C29.9428 68.8165 29.8479 71.0582 29.2745 73.2577C29.2119 73.4976 29.1809 73.7801 29.2478 74.0111C29.3931 74.5124 29.2595 74.8368 28.7533 74.9663C28.2274 75.1009 27.8301 74.8176 27.7046 74.3753C27.5555 73.8499 27.2973 73.2711 27.765 72.7312C27.8753 72.6038 27.9383 72.3787 27.9196 72.2097C27.7993 71.1176 28.1356 70.0457 28.0468 68.9576C28.0244 68.6832 28.0564 68.3491 27.7464 68.2322C27.4121 68.1061 27.2495 68.4343 27.0782 68.6289C25.6193 70.286 24.1673 71.9494 22.8227 73.7004C22.7098 73.8475 22.5821 73.9858 22.4469 74.1135C22.1534 74.3905 21.7705 74.5733 21.4505 74.28C21.0887 73.9484 20.7854 73.4672 21.1994 72.9897C22.1431 71.9013 22.9038 70.6728 23.9527 69.6594C24.5979 69.0362 25.0388 68.2138 25.7532 67.6342C25.8209 67.5793 25.8909 67.4794 25.8918 67.3996C25.902 66.5211 26.4638 65.998 27.0574 65.4374C27.8019 64.7343 27.9619 63.7282 28.135 62.7776C28.458 61.0036 28.619 59.2083 28.8151 57.4171C28.9954 55.7701 29.1773 54.3438 29.9729 52.4951C31.1482 48.6461 31.8594 47.5353 32.3684 46.4881C32.8719 45.4523 32.8999 44.3049 33.4039 43.2971C33.5683 42.9683 33.824 42.6822 33.975 42.3488C34.6975 40.7539 35.484 39.1906 36.1009 37.5437C36.389 36.7743 36.4349 35.9829 36.6721 35.2669C36.9387 34.4624 37.021 33.6052 37.3951 32.8084C37.7977 31.9509 37.9345 30.9507 38.117 30.0077C38.4152 28.4671 38.8311 26.9466 38.9753 25.3746C39.1172 23.8289 39.5258 22.3295 39.9357 20.8358C40.3562 19.3031 40.7172 17.7526 41.1529 16.2282C41.6892 14.3517 41.7932 12.3992 42.3537 10.5358C42.4276 10.2899 42.4376 10.0194 42.1852 9.84069C41.9918 9.70376 41.7494 9.70868 41.5918 9.85033C40.8213 10.5429 39.731 10.7324 38.9979 11.4761C38.151 12.3352 37.0547 12.9708 36.3024 13.858C35.5144 14.7874 34.5989 15.6294 33.9294 16.6582C33.6441 17.0967 33.2413 17.4088 32.8251 17.7844ZM45.2264 38.0846C45.9718 36.6736 45.6488 36.1391 45.0857 35.1663C44.6633 34.8883 44.2387 34.3133 43.5678 34.5446C42.6999 34.8438 41.8233 35.1545 41.1482 35.8568C38.6097 38.2236 38.6097 38.6405 37.9698 39.2843C36.2915 40.8814 35.9303 42.7817 36.4098 44.879C36.8056 46.6104 37.9671 47.4043 39.588 46.0241C40.3213 45.3997 40.9033 44.6243 41.7608 44.1128C42.2629 43.8132 42.6146 43.2767 42.8714 42.7095C43.1264 42.1465 43.4247 41.6151 43.8419 41.1241C44.4523 40.4055 44.5225 39.7522 44.9449 38.7794L45.2264 38.0846Z" fill="black"/>
<path d="M20.3495 47.1891C22.629 47.8486 25.1773 47.1755 26.1805 46.6918C26.5117 46.6649 26.8762 46.3678 27.301 46.3678C27.4414 46.3855 27.6742 46.3491 27.8386 46.6846C27.9945 47.0025 28.1471 47.3324 27.7336 47.5707C27.8673 47.5794 26.7347 48.2525 25.4605 48.6563C23.3368 49.0602 22.572 49.0326 21.9391 48.9485C20.7259 48.7874 19.5936 48.3163 18.4229 47.9899C17.2079 47.651 16.296 46.9633 15.7205 45.8876C15.196 44.9072 15.3382 43.8407 15.3333 42.8036C15.3277 41.6414 15.5969 40.494 15.6638 39.3374C15.7199 38.3675 15.3699 38.1625 14.4137 38.4526C13.8851 38.613 13.3393 38.6068 12.8033 38.6343C11.0197 39.0984 12.7186 38.6946 10.4534 39.233C8.61293 39.233 7.14186 39.8637 5.67157 40.2419C4.61541 40.5136 3.58631 40.9935 2.62 41.544C1.97608 41.9108 1.31087 42.2558 0.505615 42.2088C0.0589572 42.1827 -0.0352476 42.0053 0.0103824 41.6017C0.10579 40.7581 0.68713 40.2536 1.38898 39.9424C2.78428 39.3236 3.94203 38.3961 5.17527 37.5581C6.06935 36.9505 6.95509 36.3255 7.94201 35.8392C8.78748 35.4227 9.31676 34.626 10.0594 34.0726C11.3166 33.1357 12.6033 32.2354 13.7618 31.1785C14.5849 30.4276 14.8477 29.3539 15.5787 28.5558C15.8067 28.3068 15.9011 27.9068 16.3541 28.0196C16.8442 28.1418 17.0852 28.5241 17.1136 28.9713C17.1405 29.3948 17.0294 29.8133 16.7924 30.1934C15.4748 32.3062 13.4716 33.7604 11.4632 35.2072C11.0153 35.5298 10.5364 35.7978 10.1775 36.2365C9.78218 36.7199 9.16265 36.9455 8.62066 37.2543C8.50168 37.3221 8.35035 37.3431 8.32034 37.5122C8.3502 37.7251 8.5326 37.7287 8.6925 37.7166C9.04321 37.6901 9.39879 37.6692 9.7404 37.5957C10.8716 37.3523 11.9499 36.8947 13.8512 36.6753C15.2521 36.3933 15.9093 36.3442 16.5758 36.3693C17.2805 36.3959 18.0116 37.2169 17.9226 37.8841C17.7574 39.1225 17.4976 40.341 17.2299 41.5638C16.8898 43.1175 16.6853 44.8368 18.1303 46.1658C18.948 46.6371 18.6648 46.3678 19.3727 46.7717C19.939 47.0409 20.0156 47.0179 20.3495 47.1891Z" fill="black"/>
<path d="M22 30.5185C22.1721 29.9085 22.498 29.1987 23.9479 29.0091C24.5006 28.9369 25.2707 29.2986 25.7626 29.9381C26.0251 31.1607 26.2523 32.3839 25.3911 33.546C25.0449 34.0132 24.5688 33.9539 24.1146 34C23.3771 33.5684 23.205 34.0258 22.1721 31.8909L22 30.5185Z" fill="black"/>
<path d="M32.5099 66.4316C33.5267 67.2245 33.8639 68.4418 34.5253 69.4264C34.8612 69.9264 35.2101 70.4078 35.6068 70.8562C35.8361 71.1153 36.1267 71.4243 35.9407 71.7709C35.7338 72.1564 35.3111 71.9574 35.0083 71.8738C34.1452 71.6356 33.4952 71.1667 33.1172 70.2455C32.6996 69.2281 32.1887 68.2346 31.2866 67.5322C30.889 67.2225 30.9177 66.6165 31.2948 66.2675C31.7238 65.8703 32.0914 65.9077 32.5099 66.4316Z" fill="black"/>
</g>
<defs>
<clipPath id="clip0_1_2">
<rect width="504" height="76" fill="white"/>
</clipPath>
</defs>
</svg>
