<svg width="564" height="76" viewBox="0 0 564 76" fill="none" xmlns="http://www.w3.org/2000/svg">
<g clip-path="url(#clip0_1_31)">
<path d="M510.765 56.9332V53.931H519.771V50.9773H522.725V44.973H525.727V27.5412H522.725V21.5369H511.298V24.5391H508.295V27.5412H505.342V33.4971H502.34V39.5014H499.337V45.5057H495.851V24.0064H498.805V18.0506H502.34V24.5391H499.337V33.0129H501.807V27.0086H504.809V24.0064H507.811V21.0043H510.765V18.0506H523.258V21.0043H526.26V27.0086H529.262V45.5057H526.26V51.4615H523.258V54.4637H520.256V57.5142H511.298V60.5164H498.805V56.9332H510.765Z" fill="black"/>
<path d="M454.596 44.9246H457.55V18.0021H469.51V15H479V18.4864H470.042V21.4885H461.084V29.9623H482.003V33.4487H473.045V60.4679H469.51V33.4487H461.084V45.4572H458.082V60.4679H454.596V44.9246ZM445.589 56.8847V45.4572H436.583V41.9224H445.589V30.4949H436.583V26.9602H445.589V15H449.124V26.9602H455.08V30.4949H449.124V35.9182H455.08V39.4529H449.124V57.4658H446.122V60.4679H439.634V56.8847H445.589Z" fill="black"/>
<path d="M383.319 44.9246H386.37V38.9203H389.372V32.9644H392.326V30.4949H383.319V26.9602H392.326V15H395.86V26.9602H401.816V30.4949H395.86V32.9644H398.863V35.9182H401.816V42.4551H398.33V36.4508H395.86V60.4679H392.326V39.4529H389.856V45.4572H386.902V48.411H383.319V44.9246ZM404.286 56.8847V18.0021H422.783V39.4529H413.776V44.9246H416.779V47.9267H419.248V44.9246H422.25V41.9224H425.204V38.9203H428.739V42.4551H425.737V45.4572H422.783V48.411H419.781V53.8826H422.783V56.8847H428.739V60.4679H422.25V57.4658H419.248V54.4152H416.246V48.411H413.292V45.4572H410.29V39.4529H407.821V53.8826H413.776V57.4658H404.818V60.4679H398.33V56.8847H404.286ZM419.248 26.9602V21.4885H407.821V26.9602H419.248ZM419.248 35.9182V30.4949H407.821V35.9182H419.248Z" fill="black"/>
<path d="M330.055 53.8826H333.106V44.9246H336.108V18.0021H369.519V30.4949H339.594V45.4572H336.592V54.4152H333.638V60.4679H330.055V53.8826ZM365.984 26.9601V21.4885H339.594V26.9601H365.984ZM354.024 56.8847V51.4131H342.064V47.9267H354.024V45.4572H342.064V41.9224H345.066V38.9203H348.068V36.4508H342.064V32.9644H369.519V36.4508H366.517V41.9224H369.519V45.4572H365.984V42.4551H357.559V47.9267H369.519V51.4131H357.559V56.8847H375.475V60.4679H336.108V56.8847H354.024ZM357.026 41.9224V38.9203H362.982V36.4508H351.555V39.4529H348.552V41.9224H357.026Z" fill="black"/>
<path d="M291.802 53.8826H303.762V36.4508H294.804V32.9644H303.762V15H307.249V32.9644H319.209V36.4508H307.249V53.8826H322.211V57.4658H291.802V53.8826ZM285.798 42.4551H283.328V45.4572H276.791V41.9224H282.844V38.9203H285.798V32.9644H288.8V29.9623H291.802V27.4928H276.791V23.958H285.798V15H289.333V23.958H295.289V30.4949H292.335V33.4487H289.333V35.9182H292.335V38.9203H298.291V42.4551H291.802V39.4529H289.333V60.4679H285.798V42.4551Z" fill="black"/>
<path d="M223.528 32.9644H229.58V29.9623H232.534V26.9602H235.536V23.958H238.538V20.9559H241.541V18.0021H244.494V15H248.029V18.0021H251.031V20.9559H253.985V23.958H256.987V26.9602H259.989V29.9623H262.991V32.9644H268.947V36.4508H262.459V33.4487H259.457V30.4949H256.987V33.4487H235.536V30.4949H233.067V33.4487H230.065V36.4508H223.528V32.9644ZM256.454 29.9623V27.4928H253.501V24.4906H250.499V21.4885H247.496V18.4864H245.027V21.4885H242.025V24.4906H239.071V27.4928H236.069V29.9623H256.454ZM226.578 53.8826H232.534V50.9289H235.536V47.9267H238.538V44.9246H241.541V42.4551H226.578V38.9203H265.945V42.4551H245.027V45.4572H242.025V48.411H239.071V51.4131H236.069V53.8826H244.494V50.9289H256.454V48.411H253.501V44.9246H256.987V47.9267H259.989V50.9289H262.991V53.8826H265.945V60.4679H262.459V54.4152H245.027V57.4658H226.578V53.8826Z" fill="black"/>
<path d="M173.314 23.958H194.233V15H197.767V23.958H206.193V21.4885H203.191V18.0021H206.725V20.9559H209.728V23.958H215.683V27.4928H197.767V35.9182H200.721V44.9246H203.723V50.9289H206.725V53.8826H209.728V56.8847H212.149V47.9267H215.683V57.4658H212.681V60.4679H209.195V57.4658H206.193V54.4152H203.191V51.4131H200.237V45.4572H197.235V36.4508H194.233V27.4928H173.314V23.958ZM170.264 53.8826H179.27V50.9289H182.272V39.4529H173.314V35.9182H191.763V39.4529H185.807V50.9289H194.765V54.4152H179.803V57.4658H170.264V53.8826Z" fill="black"/>
<path d="M117 44.9246H120.051V38.9203H123.053V32.9644H126.006V30.4949H117V26.9602H126.006V15H129.541V26.9602H137.967V18.0021H141.501V23.958H143.971V15H147.457V23.958H159.417V27.4928H147.457V35.9182H162.42V39.4529H150.459V41.9224H153.462V47.9267H156.464V50.9289H159.417V53.8826H162.42V57.4658H158.885V54.4152H155.931V51.4131H152.929V48.411H149.927V42.4551H147.457V60.4679H143.971V42.4551H141.501V48.411H138.499V54.4152H135.497V57.4658H132.011V53.8826H135.013V47.9267H137.967V41.9224H140.969V39.4529H135.497V42.4551H132.011V36.4508H129.541V60.4679H126.006V39.4529H123.537V45.4572H120.583V48.411H117V44.9246ZM143.971 35.9182V27.4928H138.499V33.4487H135.013V30.4949H129.541V32.9644H132.543V35.9182H143.971Z" fill="black"/>
<path d="M60.0734 62.7454C60.1188 61.5698 60.2232 60.418 59.9783 59.345C59.6719 58.0027 59.9039 56.6071 59.3958 55.2885C59.0171 50.9287 58.8069 51.0501 58.9205 50.7581C58.6335 48.1365 58.5357 47.489 58.3754 46.8756C58.1868 46.1541 57.9987 45.433 57.9437 44.6849C57.9288 44.4833 57.9757 44.2274 57.7381 44.1293C57.4761 44.0211 57.3012 44.216 57.1376 44.3877C55.9579 45.6261 54.7033 46.7885 53.6255 48.1302C50.7859 52.3095 50.223 54.1287 49.6431 55.8182C48.6751 59.0264 48.8973 57.5288 48.6924 58.4029C48.4945 59.2475 48.0473 59.9757 47.8662 60.8181C47.6649 61.755 47.4927 62.6847 47.4261 63.6402C47.3732 64.4004 46.7977 64.8758 46.269 65.2903C45.8431 65.6243 45.2091 65.219 45.055 64.6185C44.907 64.042 45.0822 63.4829 45.2901 62.9814C45.2978 61.2654 45.4385 60.006 45.6128 56.8796C45.1571 53.5689 45.4109 50.8417 45.4823 47.8245C45.5027 46.959 45.6842 46.1247 45.7548 45.2722C46.9422 38.1223 47.3109 37.0005 47.8673 35.9511C48.098 35.5159 48.5396 35.3393 49.011 35.5778C49.5035 35.8269 49.8147 36.3179 49.5164 36.7949C48.2254 41.7328 47.925 43.1466 47.619 44.5521C47.2935 46.0473 47.0995 47.5733 46.9015 49.0928C46.7085 50.5735 46.746 52.068 46.7249 53.559C46.714 54.332 46.8142 55.0914 46.8618 55.8571C46.8737 56.0494 46.912 56.2432 47.1406 56.2888C47.371 56.3347 47.4787 56.1634 47.5641 55.9942C47.8544 55.4196 48.3109 54.9185 48.2826 54.2061C49.6755 50.9163 49.9447 50.3975 50.4057 49.9096C51.3184 48.9438 51.8732 47.6934 52.8417 46.7649C54.0894 45.5685 55.0395 44.1187 56.2095 42.8621C56.8703 42.1524 57.5522 41.2732 58.3799 40.935C59.4619 40.493 60.0282 39.3503 61.2161 39.1656C61.3585 39.1434 61.4884 38.9922 61.608 38.8834C62.2145 38.3316 62.8192 37.7957 63.7011 37.7115C63.9428 37.6885 64.2755 37.5818 64.3865 37.403C65.0062 36.4052 66.0623 36.3671 67.0235 36.2248C67.9584 36.0864 68.8402 35.8175 69.7342 35.5463C70.9058 35.1908 72.1379 35.0604 73.3428 35.0461C75.5681 35.0198 77.7833 34.7287 80.0073 34.819C80.9137 34.8557 81.8218 35.0083 82.679 35.3454C83.0743 35.501 83.4705 35.6071 83.9028 35.6211C85.247 35.6645 86.5129 36.0538 87.7818 36.4704C88.5088 36.709 89.2772 36.8265 89.9906 37.1285C90.1398 37.1917 90.3199 37.1784 90.4496 37.0438C90.6233 36.8636 90.4881 36.7098 90.4091 36.5401C90.0503 35.7686 89.5641 35.0818 88.9243 34.5276C87.9153 33.6537 87.2844 32.4703 86.3365 31.5357C85.2109 30.426 84.0956 29.3216 82.7875 28.4253C82.6538 28.3337 82.5036 28.191 82.3648 28.1951C81.8275 28.2109 81.5986 27.8558 81.334 27.4843C80.4265 26.2099 80.7419 25.0773 82.1954 24.4478C83.1926 24.0159 84.1988 23.6159 85.117 23.0069C86.1599 22.3153 87.414 22.0026 88.5919 21.7548C89.6105 21.5405 90.769 21.8279 91.8297 22.1557C92.2534 22.2867 92.6882 22.386 93.123 22.4755C93.3094 22.5139 93.5137 22.4729 93.6131 22.282C93.7204 22.076 93.5723 21.9243 93.4418 21.793C91.9047 20.2462 90.1293 19.1787 87.9483 18.6959C86.2123 18.3115 84.4444 18.117 82.7205 17.688C82.2192 17.5633 81.8814 17.1852 81.4944 16.9041C81.2164 16.7021 81.4148 16.3593 81.6021 16.0967C82.7058 14.5494 84.0595 13.2558 85.5655 12.0967C86.3762 11.4727 87.0655 10.6946 87.9857 10.2051C88.1066 10.1408 88.2203 10.0434 88.2055 9.85652C88.0868 9.58696 87.8218 9.64793 87.6054 9.65809C86.8823 9.69207 86.1682 9.74752 85.4539 9.92969C84.6614 10.1318 83.8192 10.0261 83.0081 10.0985C81.718 10.2137 80.4413 10.4899 79.4782 11.4776C78.9513 12.0178 78.6719 12.0336 78.0516 11.5075C77.5684 11.0977 77.4532 10.4165 77.8166 9.96637C78.0374 9.69287 78.3048 9.41575 78.653 9.35159C80.6089 8.99109 82.4947 8.08924 84.5627 8.56678C84.7539 8.61092 84.9498 8.59763 85.1113 8.50384C85.9294 8.02893 86.7893 8.05764 87.6963 8.17097C88.9306 8.32518 90.1579 7.85683 91.4035 8.04559C92.9111 8.27405 94.4389 7.87975 95.9482 8.19635C96.2527 8.26023 96.5372 8.3136 96.7885 8.501C97.1499 8.7706 97.5377 9.04061 97.4273 9.5651C97.3489 9.93788 96.4864 10.4072 96.0386 10.291C95.2595 10.0889 94.4632 10.0801 93.6749 9.98176C92.7768 9.86973 91.8843 9.96841 91.0165 10.1203C90.3637 10.2346 89.9769 10.9402 89.3236 11.157C88.4813 11.4365 87.9938 12.2188 87.25 12.6309C86.7687 12.8975 86.7332 13.4612 86.3996 13.771C85.7684 14.357 85.1418 14.9481 84.5154 15.5396C84.3067 15.7366 84.0423 15.8976 84.1159 16.2163C84.192 16.5454 84.5153 16.4822 84.7599 16.5117C85.3408 16.5818 85.9266 16.7139 86.5043 16.6874C87.5958 16.6373 88.4553 17.2826 89.4383 17.5347C92.526 18.3267 94.5952 20.5955 96.8831 22.5455C97.3936 22.9806 98.1181 23.1341 98.4686 23.7715C98.5575 23.9331 98.6915 24.0697 98.7873 24.2282C99.053 24.6678 99.1166 25.0985 98.7035 25.4982C98.2954 25.8932 97.8726 25.73 97.4785 25.502C96.8936 25.1638 96.3922 24.6965 95.8162 24.3223C94.4295 23.5582 94.2682 23.7625 94.0418 23.6608C93.5135 23.8303 92.9799 23.7925 92.4415 23.7036C88.6437 23.176 87.492 23.641 86.4228 24.4578C86.0829 24.7175 85.7185 24.8729 85.2917 24.9709C84.4713 25.1592 83.8202 25.6674 83.2373 26.2592C82.8825 26.6194 83.1948 26.7985 83.4468 26.9619C84.8911 27.8982 86.1615 29.0328 87.2264 30.3732C88.3337 31.7666 89.6575 32.9677 90.7727 34.3379C91.5372 35.2773 92.3824 36.1502 93.1106 37.1214C93.5184 37.6653 93.3973 38.4434 94.0054 38.8879C94.3023 39.1049 94.5784 39.3844 94.7774 39.6911C95.0597 40.1265 95.4548 40.6058 95.0256 41.1475C94.7156 41.5387 93.7672 41.5079 93.2498 41.1635C92.6864 40.7885 92.3968 40.18 91.9597 39.6978C91.8035 39.5255 91.6852 39.2556 91.451 39.2364C90.3512 39.1463 89.45 38.5232 88.4567 38.1564C86.994 37.6163 85.4486 37.4329 83.9498 37.0655C82.9648 36.8241 81.8866 36.8153 80.842 36.7569C79.3809 36.6753 77.9116 36.6367 76.4515 36.5387C68.6573 36.7766 67.7331 37.9182 66.5246 38.0811C66.1013 38.1381 65.8777 38.5055 65.5138 38.6762C64.3158 39.2379 63.0837 39.7838 62.0191 40.5485C61.4399 40.9645 60.7657 41.1606 60.2204 41.6061C59.4041 42.2729 59.2232 42.7639 59.4824 43.7831C59.7989 45.0281 60.054 46.2757 60.3548 47.9715C61.1991 53.9887 61.7151 56.3246 61.7361 58.8899C61.7404 59.4194 61.743 60.0741 61.9637 60.5167C62.4141 61.4199 62.4608 62.706 63.8283 62.9365C64.1128 62.9844 64.322 63.1924 64.542 63.3685C65.0781 63.7975 65.6499 64.1579 66.3612 64.2114C67.2716 64.28 67.7582 65.1003 68.5309 65.4159C68.7207 65.4934 68.8753 65.6519 69.058 65.7516C69.3753 65.9247 69.6092 66.1299 69.4299 66.5276C69.2686 66.8853 68.993 67.1328 68.5972 66.9704C67.8494 66.6637 67.1123 66.3242 66.3964 65.9498C65.4723 65.4667 64.6389 64.8118 63.5041 64.8154C62.727 64.8179 62.4845 65.0032 62.6656 65.7463C63.0454 67.3054 63.5644 68.8326 63.6314 70.4591C63.6481 70.8635 63.9482 71.2238 63.9219 71.6675C63.8812 72.3521 63.5263 72.5857 62.9083 72.3044C62.2569 72.0077 61.9587 71.5377 61.8403 70.8041C61.6312 69.5082 61.5959 68.1777 61.1576 66.921C61.088 66.7217 61.0417 66.4906 60.8131 66.4279C60.5598 66.3584 60.4484 66.5958 60.311 66.7422C59.4909 67.6155 59.0902 68.7521 58.4301 69.7208C57.8769 70.5327 57.5378 71.452 56.9767 72.2589C56.6706 72.6991 56.3553 73.1593 55.8467 72.9463C55.368 72.7458 55.2185 72.1576 55.2741 71.6174C55.3304 71.0702 55.6098 70.591 55.9351 70.1728C56.52 69.4209 57.0131 68.6582 57.4139 67.7668C57.791 66.928 58.1454 65.9637 58.9054 65.3187C59.6908 64.6521 59.9412 63.7405 60.1646 62.7454H60.0734Z" fill="black"/>
<path d="M32.8251 14.7844C32.4638 15.1449 32.2123 15.5404 31.7548 15.7352C31.4621 15.8598 31.1777 16.041 30.9376 15.7278C30.6909 15.406 30.6387 14.995 30.9633 14.7137C31.7292 14.0497 32.3517 13.3006 32.7543 12.3671C32.8376 12.1739 33.0797 12.0425 33.2595 11.8955C33.8598 11.4049 34.4446 10.9116 34.6114 10.0958C34.6456 9.92863 34.7706 9.73399 34.9133 9.64111C36.0583 8.8957 36.8062 7.67851 37.9775 7.00536C39.3956 6.19039 40.7891 5.26895 42.4782 5.02117C43.0481 4.93757 43.2354 4.50352 43.3679 3.99756C43.8765 2.05499 44.2489 0.0652267 45.2731 -1.70911C45.47 -2.05005 45.6816 -2.3863 45.9221 -2.69785C46.1186 -2.95236 46.4052 -3.0706 46.7349 -2.95633C47.0591 -2.84398 47.0805 -2.56455 47.1087 -2.27639C47.1983 -1.35868 46.7186 -0.61741 46.3084 0.124316C45.9991 0.683743 45.7933 1.25598 45.6557 1.86962C45.5304 2.42852 45.4724 2.99911 45.1276 3.50793C44.8392 3.93367 45.0855 4.37353 45.6256 4.47929C46.0378 4.56003 46.4619 4.60028 46.8824 4.61755C48.3349 4.67718 49.8251 4.74361 51.1599 5.25236C51.981 5.56527 53.0407 5.69629 53.5644 6.61985C53.6395 6.75234 53.792 6.85336 53.928 6.9392C55.2569 7.77827 56.3313 8.9021 57.4994 9.92675C58.2617 10.5955 59.0719 11.2829 59.9669 11.8174C60.3594 12.0518 60.6684 12.3422 60.9122 12.7242C61.5207 13.6775 62.0541 14.6983 62.7908 15.5453C63.565 16.4355 64.3386 17.3281 65.1144 18.2182C65.4405 18.5923 65.7553 18.9463 65.8701 19.4424C65.9609 19.835 66.2144 20.1483 66.4504 20.4657C66.5335 20.5775 66.6514 20.6689 66.7142 20.7896C66.9169 21.1791 67.1367 21.5786 66.892 22.0265C66.7559 22.2755 66.5266 22.3513 66.2369 22.327C65.6832 22.2805 65.0486 22.0647 65.0227 21.5649C64.9577 20.3126 63.879 19.8292 63.2979 18.9776C62.542 17.8698 61.6185 16.871 61.0452 15.6434C60.8027 15.1242 60.3205 14.8 59.9787 14.3608C59.2073 13.3696 58.4158 12.3985 57.3182 11.7229C56.8953 11.4626 56.6397 11.0273 56.3031 10.6763C55.1784 9.50379 53.9574 8.45789 52.3599 7.94898C51.9099 7.80564 51.754 7.32754 51.3383 7.12369C50.2981 6.61352 49.228 6.24453 48.0582 6.17983C47.4733 6.14748 46.8874 6.09921 46.3076 6.01819C44.673 5.78979 44.0766 6.20637 43.938 7.83353C43.8017 9.43333 43.304 10.9751 42.8739 12.4788C42.4036 14.1229 42.0946 15.7985 41.7102 17.4501C41.403 18.7703 41.0207 20.0745 40.7452 21.4023C40.7124 21.5607 40.6292 21.7186 40.6359 21.8739C40.7093 23.5533 39.9116 25.089 39.8294 26.7509C39.7889 27.5718 39.1798 28.268 39.0496 29.1093C38.8696 30.2722 38.5535 31.4088 38.1694 32.5255C38.0772 32.7935 38.1059 33.07 38.3143 33.3099C39.1374 33.1904 39.2623 32.3432 39.8086 31.9324C40.9419 31.0803 42.0605 30.2139 43.4076 29.7077C43.8252 29.5508 44.2499 29.6203 44.6174 29.8686C45.3129 30.3385 46.0641 30.7578 46.6343 31.3325C47.1974 32.1663 47.1173 32.6644 47.1964 33.3521C47.3108 34.3472 46.9485 35.2521 46.5871 36.2088C45.8092 38.2679 44.5329 39.9655 43.0209 41.4605C41.8612 42.6071 40.9457 44.04 39.4254 44.8134C38.5397 45.264 37.6191 45.1803 36.7127 44.9005C36.4527 44.8202 36.2013 44.585 36.1482 44.3111C35.9743 43.4134 35.2926 42.7905 34.9449 41.9607C34.5761 42.0482 34.393 42.3165 34.3346 42.5912C34.1325 43.5415 33.6162 44.4008 33.1192 45.3682C31.2407 50.7414 31.0314 51.5381 30.8864 52.3654C30.7913 52.9086 30.6592 53.4502 30.4443 55.3739C29.6499 61.1861 29.6805 61.4729 29.5565 61.7322C29.2887 62.2926 29.2942 62.7982 29.7812 63.2505C29.8565 63.3204 29.9031 63.4562 29.9049 63.5625C29.9428 65.8165 29.8479 68.0582 29.2745 70.2577C29.2119 70.4976 29.1809 70.7801 29.2478 71.0111C29.3931 71.5124 29.2595 71.8368 28.7533 71.9663C28.2274 72.1009 27.8301 71.8176 27.7046 71.3753C27.5555 70.8499 27.2973 70.2711 27.765 69.7312C27.8753 69.6038 27.9383 69.3787 27.9196 69.2097C27.7993 68.1176 28.1356 67.0457 28.0468 65.9576C28.0244 65.6832 28.0564 65.3491 27.7464 65.2322C27.4121 65.1061 27.2495 65.4343 27.0782 65.6289C25.6193 67.286 24.1673 68.9494 22.8227 70.7004C22.7098 70.8475 22.5821 70.9858 22.4469 71.1135C22.1534 71.3905 21.7705 71.5733 21.4505 71.28C21.0887 70.9484 20.7854 70.4672 21.1994 69.9897C22.1431 68.9013 22.9038 67.6728 23.9527 66.6594C24.5979 66.0362 25.0388 65.2138 25.7532 64.6342C25.8209 64.5793 25.8909 64.4794 25.8918 64.3996C25.902 63.5211 26.4638 62.998 27.0574 62.4374C27.8019 61.7343 27.9619 60.7282 28.135 59.7776C28.458 58.0036 28.619 56.2083 28.8151 54.4171C28.9954 52.7701 29.1773 51.3438 29.9729 49.4951C31.1482 45.6461 31.8594 44.5353 32.3684 43.4881C32.8719 42.4523 32.8999 41.3049 33.4039 40.2971C33.5683 39.9683 33.824 39.6822 33.975 39.3488C34.6975 37.7539 35.484 36.1906 36.1009 34.5437C36.389 33.7743 36.4349 32.9829 36.6721 32.2669C36.9387 31.4624 37.021 30.6052 37.3951 29.8084C37.7977 28.9509 37.9345 27.9507 38.117 27.0077C38.4152 25.4671 38.8311 23.9466 38.9753 22.3746C39.1172 20.8289 39.5258 19.3295 39.9357 17.8358C40.3562 16.3031 40.7172 14.7526 41.1529 13.2282C41.6892 11.3517 41.7932 9.39916 42.3537 7.53579C42.4276 7.28994 42.4376 7.01938 42.1852 6.84069C41.9918 6.70376 41.7494 6.70868 41.5918 6.85033C40.8213 7.54292 39.731 7.73239 38.9979 8.47611C38.151 9.33519 37.0547 9.97082 36.3024 10.858C35.5144 11.7874 34.5989 12.6294 33.9294 13.6582C33.6441 14.0967 33.2413 14.4088 32.8251 14.7844ZM45.2264 35.0846C45.9718 33.6736 45.6488 33.1391 45.0857 32.1663C44.6633 31.8883 44.2387 31.3133 43.5678 31.5446C42.6999 31.8438 41.8233 32.1545 41.1482 32.8568C38.6097 35.2236 38.6097 35.6405 37.9698 36.2843C36.2915 37.8814 35.9303 39.7817 36.4098 41.879C36.8056 43.6104 37.9671 44.4043 39.588 43.0241C40.3213 42.3997 40.9033 41.6243 41.7608 41.1128C42.2629 40.8132 42.6146 40.2767 42.8714 39.7095C43.1264 39.1465 43.4247 38.6151 43.8419 38.1241C44.4523 37.4055 44.5225 36.7522 44.9449 35.7794L45.2264 35.0846Z" fill="black"/>
<path d="M20.3495 44.1891C22.629 44.8486 25.1773 44.1755 26.1805 43.6918C26.5117 43.6649 26.8762 43.3678 27.301 43.3678C27.4414 43.3855 27.6742 43.3491 27.8386 43.6846C27.9945 44.0025 28.1471 44.3324 27.7336 44.5707C27.8673 44.5794 26.7347 45.2525 25.4605 45.6563C23.3368 46.0602 22.572 46.0326 21.9391 45.9485C20.7259 45.7874 19.5936 45.3163 18.4229 44.9899C17.2079 44.651 16.296 43.9633 15.7205 42.8876C15.196 41.9072 15.3382 40.8407 15.3333 39.8036C15.3277 38.6414 15.5969 37.494 15.6638 36.3374C15.7199 35.3675 15.3699 35.1625 14.4137 35.4526C13.8851 35.613 13.3393 35.6068 12.8033 35.6343C11.0197 36.0984 12.7186 35.6946 10.4534 36.233C8.61293 36.233 7.14186 36.8637 5.67157 37.2419C4.61541 37.5136 3.58631 37.9935 2.62 38.544C1.97608 38.9108 1.31087 39.2558 0.505615 39.2088C0.0589572 39.1827 -0.0352476 39.0053 0.0103824 38.6017C0.10579 37.7581 0.68713 37.2536 1.38898 36.9424C2.78428 36.3236 3.94203 35.3961 5.17527 34.5581C6.06935 33.9505 6.95509 33.3255 7.94201 32.8392C8.78748 32.4227 9.31676 31.626 10.0594 31.0726C11.3166 30.1357 12.6033 29.2354 13.7618 28.1785C14.5849 27.4276 14.8477 26.3539 15.5787 25.5558C15.8067 25.3068 15.9011 24.9068 16.3541 25.0196C16.8442 25.1418 17.0852 25.5241 17.1136 25.9713C17.1405 26.3948 17.0294 26.8133 16.7924 27.1934C15.4748 29.3062 13.4716 30.7604 11.4632 32.2072C11.0153 32.5298 10.5364 32.7978 10.1775 33.2365C9.78218 33.7199 9.16265 33.9455 8.62066 34.2543C8.50168 34.3221 8.35035 34.3431 8.32034 34.5122C8.3502 34.7251 8.5326 34.7287 8.6925 34.7166C9.04321 34.6901 9.39879 34.6692 9.7404 34.5957C10.8716 34.3523 11.9499 33.8947 13.8512 33.6753C15.2521 33.3933 15.9093 33.3442 16.5758 33.3693C17.2805 33.3959 18.0116 34.2169 17.9226 34.8841C17.7574 36.1225 17.4976 37.341 17.2299 38.5638C16.8898 40.1175 16.6853 41.8368 18.1303 43.1658C18.948 43.6371 18.6648 43.3678 19.3727 43.7717C19.939 44.0409 20.0156 44.0179 20.3495 44.1891Z" fill="black"/>
<path d="M22 27.5185C22.1721 26.9085 22.498 26.1987 23.9479 26.0091C24.5006 25.9369 25.2707 26.2986 25.7626 26.9381C26.0251 28.1607 26.2523 29.3839 25.3911 30.546C25.0449 31.0132 24.5688 30.9539 24.1146 31C23.3771 30.5684 23.205 31.0258 22.1721 28.8909L22 27.5185Z" fill="black"/>
<path d="M32.5099 63.4316C33.5267 64.2245 33.8639 65.4418 34.5253 66.4264C34.8612 66.9264 35.2101 67.4078 35.6068 67.8562C35.8361 68.1153 36.1267 68.4243 35.9407 68.7709C35.7338 69.1564 35.3111 68.9574 35.0083 68.8738C34.1452 68.6356 33.4952 68.1667 33.1172 67.2455C32.6996 66.2281 32.1887 65.2346 31.2866 64.5322C30.889 64.2225 30.9177 63.6165 31.2948 63.2675C31.7238 62.8703 32.0914 62.9077 32.5099 63.4316Z" fill="black"/>
</g>
<defs>
<clipPath id="clip0_1_31">
<rect width="564" height="76" fill="white"/>
</clipPath>
</defs>
</svg>
