<svg version="1.1" id="Layer_1" xmlns="http://www.w3.org/2000/svg" xmlns:xlink="http://www.w3.org/1999/xlink" x="0px" y="0px" width="100%" viewBox="0 0 1024 768" enable-background="new 0 0 1024 768" xml:space="preserve">
	<path fill="#000000" opacity="1.000000" stroke="none" d="M 577 541.5765 C 577.3226 533.1752 578.0648 524.9442 576.3243 517.2767 C 574.1469 507.6842 575.7956 497.7114 572.1849 488.2887 C 569.4941 457.1324 568 458 568.8072 455.9138 C 566.7681 437.1791 566.0729 432.5521 564.9334 428.1685 C 563.5933 423.0131 562.2571 417.8599 561.8656 412.5136 C 561.7602 411.0729 562.0933 409.2445 560.4048 408.5433 C 558.5431 407.7702 557.3 409.1629 556.1378 410.3898 C 547.7543 419.2397 538.8383 427.5465 531.1792 437.1343 C 511 467 507 480 502.8791 492.0739 C 496 515 497.5795 504.2976 496.1235 510.5439 C 494.7165 516.58 491.5389 521.7837 490.2522 527.8035 C 488.8212 534.499 487.5975 541.1423 487.1246 547.9707 C 486.7484 553.4027 482.6585 556.8002 478.9018 559.7624 C 475.8749 562.1492 471.37 559.2529 470.2745 554.9615 C 469.2229 550.8416 470.4681 546.8468 471.9451 543.2629 C 472 531 473 522 474.2385 499.6587 C 471 476 472.8039 456.5107 473.3109 434.9497 C 473.4563 428.7646 474.7458 422.8029 475.2479 416.7104 C 483.6857 365.6169 486.306 357.5999 490.2594 350.1011 C 491.899 346.9909 495.0372 345.729 498.3873 347.4331 C 501.8873 349.2135 504.0987 352.722 501.979 356.1309 C 492.8044 391.418 490.6695 401.521 488.4951 411.5647 C 486.1819 422.2497 484.8032 433.1549 483.3962 444.0132 C 482.0251 454.5943 482.2916 465.2742 482.1417 475.9291 C 482.064 481.4528 482.7763 486.8801 483.1143 492.3517 C 483.1991 493.7258 483.4709 495.1107 485.0953 495.4365 C 486.7326 495.7649 487.4981 494.5406 488.1054 493.3317 C 490.1683 489.2251 493.4122 485.6446 493.2107 480.5537 C 503.1096 457.0438 505.0221 453.337 508.2987 449.8502 C 514.7845 442.9482 518.7272 434.0132 525.6093 427.3774 C 534.4758 418.8282 541.2274 408.4676 549.5419 399.4876 C 554.2377 394.416 559.084 388.1331 564.9658 385.7168 C 572.6545 382.5581 576.6789 374.3922 585.121 373.072 C 586.1327 372.9138 587.0557 371.8331 587.9057 371.0554 C 592.2156 367.1122 596.5127 363.2826 602.78 362.6812 C 604.4972 362.5164 606.8616 361.7543 607.6507 360.4767 C 612.0543 353.3462 619.5594 353.0736 626.3901 352.0568 C 633.0334 351.0679 639.3 349.1462 645.6529 347.208 C 653.9787 344.6677 662.7343 343.7358 671.2971 343.6339 C 687.1105 343.4457 702.8529 341.3657 718.6568 342.0106 C 725.0979 342.2735 731.5518 343.3634 737.6428 345.7729 C 740.4525 346.8843 743.268 347.6427 746.3395 347.7426 C 755.8921 348.0532 764.8881 350.8347 773.9054 353.8118 C 779.0717 355.5174 784.5319 356.3566 789.6016 358.5148 C 790.6617 358.9662 791.9418 358.8718 792.8636 357.9096 C 794.0977 356.6216 793.137 355.5231 792.5757 354.3099 C 790.0256 348.7969 786.5706 343.8889 782.0242 339.9288 C 774.8542 333.6833 770.3705 325.2269 763.6343 318.5482 C 755.6357 310.6179 747.7101 302.7255 738.4143 296.3205 C 737.4643 295.666 736.3968 294.6462 735.4099 294.6754 C 731.5921 294.7885 729.9655 292.2514 728.085 289.5961 C 721.6357 280.4893 723.8772 272.3954 734.2062 267.8972 C 741.2929 264.8109 748.4429 261.9525 754.9685 257.6006 C 762.3795 252.6583 771.2917 250.4236 779.662 248.6526 C 786.9005 247.121 795.1331 249.1752 802.6707 251.5178 C 805.6816 252.4535 808.7715 253.163 811.8613 253.8026 C 813.1862 254.0769 814.6381 253.784 815.3443 252.4203 C 816.1071 250.9477 815.0544 249.8641 814.1269 248.9255 C 803.2039 237.8723 790.587 230.2438 775.0883 226.7931 C 762.7521 224.0465 750.1888 222.6563 737.9377 219.5907 C 734.3757 218.6994 731.9749 215.9976 729.2249 213.9886 C 727.2496 212.5456 728.6592 210.0956 729.9901 208.2194 C 737.8337 197.1617 747.4536 187.9179 758.1553 179.6346 C 763.9164 175.1754 768.8148 169.6153 775.3542 166.1174 C 776.2136 165.6578 777.0217 164.9616 776.9162 163.6261 C 776.0729 161.6998 774.1892 162.1355 772.652 162.2081 C 767.5134 162.4509 762.4384 162.8472 757.3621 164.149 C 751.7306 165.5932 745.7459 164.8377 739.9816 165.3554 C 730.8136 166.1787 721.7413 168.1524 714.8969 175.2103 C 711.1531 179.0707 709.1671 179.1835 704.7592 175.4241 C 701.3256 172.4957 700.5071 167.6276 703.0894 164.4111 C 704.6585 162.4566 706.5588 160.4763 709.0328 160.0178 C 722.9323 157.4416 736.3336 150.9969 751.0296 154.4095 C 752.3881 154.7249 753.7799 154.6299 754.9279 153.9597 C 760.7413 150.5659 766.8522 150.7711 773.298 151.581 C 782.0692 152.683 790.7906 149.3361 799.6423 150.685 C 810.3557 152.3176 821.2131 149.4999 831.9385 151.7623 C 834.1023 152.2188 836.124 152.6002 837.9095 153.9394 C 840.4783 155.866 843.2335 157.7955 842.4495 161.5436 C 841.8922 164.2075 835.7633 167.5611 832.5805 166.7308 C 827.044 165.2866 821.3855 165.2239 815.7836 164.5211 C 809.4016 163.7205 803.0589 164.4257 796.8917 165.5114 C 792.2531 166.328 789.5044 171.3703 784.8618 172.9196 C 778.8763 174.9169 775.4118 180.5074 770.1262 183.4519 C 766.7057 185.3573 766.4534 189.3857 764.0827 191.5992 C 759.5973 195.787 755.1448 200.0108 750.6929 204.2381 C 749.21 205.6462 747.3309 206.7961 747.8545 209.0738 C 748.3951 211.4254 750.6924 210.9738 752.4304 211.1848 C 756.5588 211.686 760.7217 212.6297 764.8267 212.4403 C 772.5831 212.0824 778.6913 216.6935 785.6766 218.4953 C 807.6188 224.1553 822.3237 240.3679 838.5822 254.3031 C 842.2095 257.4121 847.3585 258.5095 849.8491 263.0643 C 850.4807 264.2193 851.4333 265.1949 852.1141 266.3277 C 854.0021 269.4692 854.4537 272.5471 851.5187 275.4035 C 848.6183 278.2261 845.614 277.0595 842.8129 275.4307 C 838.6567 273.0139 835.0932 269.6745 831 267 C 821.1463 261.54 820 263 818.3911 262.2732 C 814.6363 263.4845 810.8449 263.214 807.0189 262.5789 C 780.0301 258.8088 771.8455 262.1317 764.2479 267.9686 C 761.8322 269.8245 759.2429 270.9352 756.2098 271.6353 C 750.3799 272.981 745.7527 276.6126 741.6105 280.8414 C 739.0891 283.4156 741.3088 284.6956 743.0992 285.8628 C 753.363 292.5539 762.3906 300.6624 769.9587 310.2404 C 777.827 320.1982 787.2349 328.7811 795.1595 338.573 C 800.5923 345.286 806.5985 351.5238 811.7736 358.4643 C 814.6716 362.3512 813.8109 367.911 818.1323 371.0874 C 820.2419 372.6382 822.204 374.6357 823.618 376.8277 C 825.6247 379.9387 828.4321 383.3643 825.3818 387.2352 C 823.1791 390.0305 816.4397 389.8104 812.7629 387.3493 C 808.7592 384.6693 806.7011 380.321 803.5945 376.8753 C 802.4846 375.6443 801.6443 373.7153 799.9796 373.5781 C 792.1641 372.9341 785.76 368.4817 778.7011 365.8605 C 768.3066 362.0007 757.325 360.6904 746.6741 358.065 C 739.6743 356.3395 732.0123 356.277 724.5884 355.8597 C 714.2057 355.2762 703.764 355.0007 693.3886 354.3003 C 638 356 631.4324 364.1582 622.8444 365.3219 C 619.8362 365.7296 618.2474 368.3551 615.6612 369.5746 C 607.1479 373.5887 598.3923 377.4901 590.8273 382.9543 C 586.7109 385.9276 581.9202 387.3289 578.045 390.5122 C 572.2443 395.2774 570.9586 398.7864 572.8002 406.0696 C 575.0499 414.9666 576.8624 423.8819 579 436 C 585 479 588.6666 495.6928 588.8159 514.0245 C 588.8466 517.8082 588.8649 522.4868 590.4332 525.6496 C 593.6337 532.1042 593.9662 541.2949 603.6841 542.9419 C 605.7057 543.2845 607.1924 544.7707 608.7556 546.0287 C 612.565 549.0945 616.629 551.6698 621.6836 552.0526 C 628.1529 552.5427 631.6111 558.4047 637.1018 560.6597 C 638.4506 561.2137 639.5495 562.3467 640.8481 563.0591 C 643.1027 564.2958 644.7648 565.7621 643.4905 568.6043 C 642.3445 571.1603 640.3861 572.9288 637.5729 571.7686 C 632.2592 569.5771 627.0208 567.1508 621.9332 564.4756 C 615.3663 561.0227 609.4441 556.3427 601.3796 556.3687 C 595.8577 556.3865 594.1342 557.7108 595.421 563.0212 C 598.1206 574.1625 601.8085 585.0759 602.2846 596.6989 C 602.4031 599.5894 604.5361 602.1638 604.3489 605.3344 C 604.06 610.2267 601.5378 611.8965 597.1461 609.8856 C 592.5167 607.7657 590.3976 604.4072 589.5565 599.1646 C 588.0707 589.9043 587.8193 580.3964 584.7047 571.4158 C 584.2106 569.9911 583.8811 568.3401 582.2568 567.8918 C 580.4571 567.395 579.6653 569.0916 578.6885 570.1378 C 572.861 576.3788 570.0134 584.5005 565.3224 591.4233 C 561.3913 597.2249 558.9816 603.7944 554.9943 609.5605 C 552.8188 612.7067 550.5781 615.9955 546.9636 614.4729 C 543.5621 613.04 542.4998 608.8369 542.8949 604.9764 C 543.295 601.066 545.2803 597.6415 547.592 594.6532 C 551.7484 589.2803 555.2531 583.8298 558.1009 577.46 C 560.781 571.4653 563.2991 564.5748 568.6998 559.9655 C 574.2813 555.202 576.0609 548.6874 577.6481 541.5765 z"/>
	<path fill="#000000" opacity="1.000000" stroke="none" d="M 382.9114 198.9211 C 380.3444 201.5157 378.5582 204.3614 375.3085 205.7631 C 373.2295 206.6599 371.2091 207.9634 369.5038 205.7099 C 367.7515 203.3942 367.3811 200.437 369.6862 198.4126 C 375.1268 193.6345 379.5487 188.244 382.408 181.5266 C 382.9999 180.136 384.7197 179.1904 385.997 178.1329 C 390.2611 174.6028 394.4144 171.0529 395.5995 165.1828 C 395.8424 163.9795 396.7304 162.5789 397.744 161.9105 C 405.8772 156.5466 411.1893 147.7878 419.5095 142.9439 C 429.5828 137.0794 439.4809 130.4488 451.479 128.6658 C 455.5269 128.0642 456.8572 124.9408 457.7982 121.3 C 461.411 107.3214 464.0562 93.0032 471.3317 80.2352 C 472.7297 77.7818 474.2332 75.3622 475.9416 73.1203 C 477.3372 71.2889 479.3726 70.438 481.7148 71.2603 C 484.0177 72.0688 484.1699 74.0795 484.3698 76.1531 C 485.0066 82.7569 481.5991 88.091 478.6855 93.4284 C 476.4881 97.454 475.0264 101.5718 474.0493 105.9875 C 473.1593 110.0093 472.7472 114.1152 470.2982 117.7766 C 468.249 120.8402 469.9989 124.0054 473.8353 124.7665 C 476.7632 125.3475 479.7756 125.6371 482.7628 125.7614 C 493.0798 126.1905 503.6652 126.6685 513.1466 130.3294 C 518.9785 132.5811 526.5057 133.5239 530.2258 140.1698 C 530.7594 141.1232 531.8427 141.8501 532.8084 142.4678 C 542.2482 148.5057 549.8797 156.5927 558.1766 163.966 C 563.5917 168.7783 569.3467 173.7247 575.7037 177.5711 C 578.4917 179.258 580.6865 181.3472 582.4188 184.0965 C 586.7408 190.9562 590.53 198.3017 595.7626 204.3967 C 601.2617 210.8022 606.7567 217.2253 612.2676 223.6307 C 614.5837 226.3228 616.82 228.8701 617.6351 232.4401 C 618.2802 235.2652 620.0811 237.5192 621.7573 239.8033 C 622.3476 240.6077 623.1854 241.2659 623.6312 242.1341 C 625.0706 244.937 626.6321 247.8118 624.8939 251.0348 C 623.9273 252.827 622.2988 253.3721 620.2407 253.1972 C 616.3075 252.863 611.8004 251.3101 611.6161 247.7129 C 611.1545 238.7017 603.4921 235.2235 599.3647 229.0953 C 593.9955 221.1235 587.4353 213.9363 583.3632 205.1027 C 581.6408 201.3663 578.2154 199.0337 575.7875 195.8733 C 570.3081 188.7408 564.6865 181.7522 556.8896 176.8909 C 553.8859 175.0181 552.0706 171.8851 549.6794 169.3596 C 541.6904 160.9224 533.0173 153.3962 521.6702 149.7341 C 518.474 148.7026 517.3662 145.2623 514.4137 143.7954 C 507.0246 140.1242 499.4237 137.469 491.1143 137.0034 C 486.96 136.7706 482.7979 136.4233 478.6799 135.8403 C 467.0685 134.1967 462.8322 137.1944 461.8476 148.9033 C 460.8796 160.4154 457.3448 171.5099 454.2894 182.3302 C 450.9485 194.1615 448.7539 206.2186 446.0238 218.1034 C 443.8416 227.6032 441.1261 236.9884 439.1691 246.5435 C 438.9357 247.6833 438.3448 248.8194 438.3929 249.9369 C 438.9137 262.0218 433.2477 273.0721 432.6641 285.0315 C 432.3759 290.9382 428.0497 295.9483 427.1247 302.0023 C 425.8462 310.3701 423.6011 318.5493 420.8728 326.5851 C 420.218 328.5137 420.4214 330.5031 421.9018 332.2292 C 427.7484 331.3698 428.6358 325.2733 432.5162 322.3172 C 440.5659 316.1852 448.5117 309.9506 458.0804 306.308 C 461.0466 305.1789 464.0636 305.6793 466.674 307.466 C 471.6143 310.8477 476.95 313.8645 481 318 C 485 324 484.4307 327.5841 484.9926 332.5327 C 485.8056 339.6935 483.2323 346.2053 480.6652 353.0893 C 475.1396 367.9066 466.0733 380.1228 455.3336 390.8802 C 447.0963 399.131 440.5929 409.4421 429.7943 415.0076 C 423.5026 418.2503 416.9634 417.6482 410.5253 415.6343 C 408.6785 415.0565 406.8925 413.364 406.5156 411.393 C 405.2804 404.9334 400.4381 400.4514 397.9687 394.4796 C 395.3488 395.1093 394.0479 397.0404 393.6331 399.0171 C 392.1981 405.8549 388.5306 412.0384 385 419 C 371.6566 457.6651 370.1702 463.3983 369.1405 469.351 C 368.4644 473.2598 367.5262 477.1573 366 491 C 360.357 532.8245 360.5745 534.8882 359.694 536.7543 C 357.7914 540.7866 357.8306 544.4249 361.2899 547.6795 C 361.825 548.183 362.1554 549.1602 362.1681 549.9252 C 362.4376 566.1448 361.7632 582.2759 357.6903 598.1031 C 357.2461 599.8293 357.0256 601.8625 357.5012 603.5245 C 358.5332 607.1317 357.5842 609.4661 353.9886 610.3981 C 350.2526 611.3666 347.4307 609.3277 346.5393 606.1452 C 345.4802 602.3642 343.6462 598.1998 346.9682 594.3141 C 347.7517 593.3976 348.1991 591.7781 348.0668 590.5618 C 347.2118 582.7032 349.601 574.9894 348.9703 567.1598 C 348.8112 565.1852 349.0379 562.7808 346.8364 561.9396 C 344.4618 561.0324 343.3067 563.3942 342.0899 564.7944 C 331.7269 576.7192 321.4131 588.6883 311.8625 601.2883 C 311.0602 602.3468 310.153 603.3425 309.1928 604.261 C 307.1085 606.2544 304.3886 607.5703 302.1152 605.4591 C 299.5456 603.073 297.3913 599.6107 300.3319 596.1747 C 307.0353 588.3427 312.4384 579.502 319.8892 572.2102 C 324.4719 567.7252 327.6036 561.8073 332.6782 557.6365 C 333.1588 557.2415 333.6565 556.5225 333.663 555.9483 C 333.735 549.6268 337.726 545.863 341.9421 541.829 C 347.2303 536.7696 348.3672 529.5295 349.5966 522.689 C 351.891 509.9235 353.0347 497.0047 354.4273 484.1149 C 355.7078 472.2633 357 462 362.6513 448.6966 C 371 421 376.0515 413.0063 379.6673 405.4709 C 383.2438 398.0174 383.4421 389.7611 387.0224 382.5086 C 388.1905 380.1425 390.0064 378.084 391.0791 375.685 C 396.2108 364.2082 401.7977 352.9585 406.1795 341.1075 C 408.2264 335.5715 408.5518 329.8765 410.2369 324.7242 C 412.1304 318.9346 412.7155 312.7668 415.3728 307.0329 C 418.2325 300.8623 419.2039 293.6651 420.5005 286.8795 C 422.6187 275.7935 425.5727 264.8515 426.5973 253.5397 C 427.6048 242.4167 430.5073 231.6274 433.4187 220.8787 C 436.4061 209.8498 438.9702 198.6925 442.0648 187.7229 C 445.8741 174.22 446.6127 160.1695 450.5942 146.7608 C 451.1195 144.9917 451.1902 143.0448 449.3973 141.7589 C 448.0236 140.7736 446.3021 140.809 445.1827 141.8283 C 439.7093 146.8121 431.9647 148.1755 426.7573 153.5273 C 420.7422 159.7092 412.9545 164.2831 407.611 170.6673 C 402.0135 177.355 395.5104 183.4143 390.7551 190.8175 C 388.7286 193.9724 385.8675 196.2183 382.9114 198.9211 M 471 345 C 476.2945 334.8465 474 331 470 324 C 467 322 463.9836 317.8618 459.2187 319.5263 C 453.0538 321.6797 446.8267 323.9149 442.0317 328.9691 C 424 346 424 349 419.4547 353.633 C 407.5336 365.1257 404.968 378.8001 408.3737 393.892 C 411.1853 406.3512 419.4356 412.0639 430.9495 402.1319 C 436.1581 397.6388 440.2922 392.0595 446.383 388.3783 C 449.9492 386.2228 452.4475 382.3619 454.2719 378.2805 C 456.0829 374.2294 458.2021 370.4055 461.1653 366.8717 C 465.5014 361.7007 466 357 469 350 z"/>
	<path fill="#000000" opacity="1.000000" stroke="none" d="M 289.8993 411.1011 C 306 416 324 411 331.086 407.4068 C 333.425 407.207 336 405 339 405 C 339.9921 405.1312 341.636 404.8612 342.7976 407.3531 C 343.8984 409.7143 344.9768 412.1653 342.0562 413.9356 C 343 414 335 419 326 422 C 311 425 305.5974 424.7953 301.1272 424.1706 C 292.5578 422.9732 284.5605 419.4743 276.2911 417.0491 C 267.7091 414.5323 261.268 409.4235 257.2031 401.4327 C 253.4984 394.15 254.5031 386.2278 254.468 378.5236 C 254.4287 369.8901 256.3298 361.3669 256.8026 352.7752 C 257.1991 345.5702 254.7271 344.0474 247.9725 346.2028 C 244.2391 347.3941 240.3841 347.3483 236.5981 347.5526 C 224 351 236 348 220 352 C 207 352 196.6093 356.685 186.2241 359.4944 C 178.7641 361.5125 171.4952 365.0771 164.6698 369.1664 C 160.1216 371.8913 155.423 374.4542 149.7352 374.1052 C 146.5803 373.9116 145.9149 372.5933 146.2372 369.5955 C 146.9111 363.3286 151.0173 359.5814 155.9747 357.2693 C 165.8302 352.6728 174.0078 345.783 182.7186 339.5577 C 189.0338 335.0444 195.2901 330.4017 202.261 326.7896 C 208.2329 323.695 211.9714 317.7774 217.2166 313.6665 C 226.0969 306.7068 235.1851 300.0187 243.3681 292.1678 C 249.1821 286.5899 251.0382 278.6143 256.2013 272.6855 C 257.8123 270.8356 258.4789 267.864 261.6783 268.7024 C 265.1406 269.6097 266.8424 272.4497 267.0432 275.7718 C 267.2334 278.918 266.4487 282.0265 264.7746 284.8497 C 255.4677 300.5449 241.3187 311.3469 227.1325 322.0943 C 223.9687 324.4912 220.586 326.4814 218.0513 329.7409 C 215.2588 333.3318 210.8828 335.0073 207.0546 337.3009 C 206.2142 337.8045 205.1453 337.9612 204.9333 339.2168 C 205.1442 340.7983 206.4326 340.825 207.562 340.7352 C 210.0392 340.5382 212.5508 340.3836 214.9637 339.8375 C 222.9537 338.0292 230.5703 334.6296 244 333 C 253.895 330.9051 258.5365 330.5404 263.2443 330.7271 C 268.2223 330.9244 273.3861 337.0233 272.7573 341.9797 C 271.5902 351.1788 269.7556 360.2302 267.8648 369.3135 C 265.4624 380.8551 264.0177 393.6271 274.2247 403.4992 C 280 407 278 405 283 408 C 287 410 287.5413 409.8288 289.8993 411.1011 z"/>
	<path fill="#000000" opacity="1.000000" stroke="none" d="M 306 288 C 307 284 308.8929 279.345 317.3156 278.102 C 320.5264 277.6282 325 280 327.8577 284.1939 C 329.3825 292.2114 330.7028 300.2328 325.6999 307.8533 C 323.6885 310.9171 320.9229 310.5282 318.2845 310.8305 C 314 308 313 311 307 297 z"/>
	<path fill="#000000" opacity="1.000000" stroke="none" d="M376.765503,546.071777  C384.244141,551.743652 386.724884,560.451782 391.589569,567.494385  C394.060577,571.071655 396.626648,574.514832 399.545166,577.722717  C401.231476,579.576294 403.369324,581.786438 402.000702,584.265808  C400.478668,587.023132 397.369690,585.599426 395.142395,585.001709  C388.793945,583.297852 384.013092,579.943604 381.232147,573.353760  C378.160797,566.075928 374.402405,558.969604 367.767517,553.944824  C364.842285,551.729553 365.053497,547.394836 367.827118,544.897949  C370.983002,542.056946 373.687134,542.323975 376.765503,546.071777 z"/>
	<path fill="#000000" opacity="1.000000" stroke="none" d="M505.562561,341.865021 C502.049591,341.973877 493.474823,336.386627 492.675415,333.608246 C491.870941,330.812378 493.595856,329.855957 495.972015,330.251434 C500.384979,330.985901 504.066528,333.380920 507.145660,336.453796 C509.056610,338.360870 508.301117,340.417358 505.562561,341.865021 z"/>
</svg>